<svg width="80" height="80" viewBox="0 0 80 80" fill="none" xmlns="http://www.w3.org/2000/svg">
  <!-- White background -->
  <rect width="80" height="80" fill="white"/>
  
  <!-- Purple square centered -->
  <rect x="20" y="20" width="40" height="40" fill="#57068C"/>
  
  <!-- White torch icon centered in purple square -->
  <g transform="translate(40, 40)">
    <!-- Handle/Base - inverted trapezoid -->
    <path d="M-4,8 L-3,12 L3,12 L4,8 Z" fill="white"/>
    
    <!-- Connecting band -->
    <rect x="-3" y="6" width="6" height="2" fill="white"/>
    
    <!-- Flame - five petal-like shapes -->
    <!-- Central petal (tallest) -->
    <path d="M0,-6 C-1,-4 -1,-2 0,0 C1,-2 1,-4 0,-6 Z" fill="white"/>
    <!-- Left petals -->
    <path d="M-2,-5 C-2.5,-3.5 -2.5,-2 -2,-1 C-1.5,-2 -1.5,-3.5 -2,-5 Z" fill="white"/>
    <path d="M-3.5,-4 C-4,-2.5 -4,-1.5 -3.5,-0.5 C-3,-1.5 -3,-2.5 -3.5,-4 Z" fill="white"/>
    <!-- Right petals -->
    <path d="M2,-5 C2.5,-3.5 2.5,-2 2,-1 C1.5,-2 1.5,-3.5 2,-5 Z" fill="white"/>
    <path d="M3.5,-4 C4,-2.5 4,-1.5 3.5,-0.5 C3,-1.5 3,-2.5 3.5,-4 Z" fill="white"/>
  </g>
</svg>
